<svg width="256" height="256" viewBox="0 0 256 256" fill="none" xmlns="http://www.w3.org/2000/svg">
<path d="M126.25 176.5C125.856 162.741 128.449 149.06 133.85 136.4C139.186 124.373 146.909 113.554 156.55 104.6C170.115 92.0417 187.444 84.3088 205.85 82.5999L207.35 103L246.55 63.1999L201.95 29.3999L203.35 49.5999C194.039 52.2215 185.101 56.0188 176.75 60.8999C169.875 64.8692 163.468 69.5989 157.65 74.9999C151.969 80.291 146.812 86.118 142.25 92.3999C137.855 98.6037 134.165 105.278 131.25 112.3C128.438 119.178 126.295 126.311 124.85 133.6C122.198 147.832 122.675 162.471 126.25 176.5V176.5Z" fill="#D8141C"/>
<path d="M56.45 137.3L68.6 137.23V69.1499H129.45C131.572 69.1499 133.607 68.307 135.107 66.8068C136.607 65.3065 137.45 63.2716 137.45 61.1499C137.45 59.0282 136.607 56.9933 135.107 55.493C133.607 53.9928 131.572 53.1499 129.45 53.1499H60.6C58.4782 53.1499 56.4434 53.9928 54.9431 55.493C53.4428 56.9933 52.6 59.0282 52.6 61.1499V138C53.8296 137.533 55.1346 137.296 56.45 137.3V137.3Z" fill="black"/>
<path d="M198.3 122C196.178 122 194.143 122.843 192.643 124.343C191.143 125.843 190.3 127.878 190.3 130V190.85H96.63L92.63 195.03L96.33 206.85H198.3C200.422 206.85 202.457 206.007 203.957 204.507C205.457 203.007 206.3 200.972 206.3 198.85V130C206.3 127.878 205.457 125.843 203.957 124.343C202.457 122.843 200.422 122 198.3 122Z" fill="black"/>
<path d="M107.45 162.7L79.05 162.8C78.8465 162.811 78.6513 162.884 78.4904 163.009C78.3296 163.134 78.2108 163.306 78.15 163.5L75.95 169.8C75.904 169.946 75.8919 170.1 75.9146 170.251C75.9374 170.401 75.9944 170.545 76.0813 170.671C76.1681 170.796 76.2826 170.9 76.4158 170.974C76.5491 171.049 76.6976 171.092 76.85 171.1H87.95C88.1457 171.103 88.3363 171.163 88.4982 171.273C88.6601 171.383 88.7861 171.538 88.8606 171.719C88.9351 171.9 88.9549 172.099 88.9175 172.291C88.88 172.483 88.787 172.66 88.65 172.8L70.95 191.8H71.05L80.15 221.4C80.196 221.545 80.2081 221.7 80.1853 221.851C80.1625 222.001 80.1055 222.145 80.0187 222.271C79.9318 222.396 79.8174 222.5 79.6841 222.574C79.5509 222.649 79.4024 222.692 79.25 222.7H70.35C70.1465 222.689 69.9513 222.616 69.7904 222.491C69.6296 222.366 69.5108 222.194 69.45 222L64.95 206.8C64.8779 206.626 64.7582 206.476 64.6045 206.367C64.4509 206.258 64.2695 206.194 64.0814 206.184C63.8933 206.173 63.7061 206.216 63.5413 206.308C63.3765 206.399 63.2408 206.535 63.15 206.7L59.45 217.4C59.4009 217.492 59.3753 217.595 59.3753 217.7C59.3753 217.805 59.4009 217.908 59.45 218L62.85 230.9C62.9108 231.094 63.0296 231.266 63.1904 231.391C63.3513 231.516 63.5465 231.589 63.75 231.6H92.35C92.5024 231.592 92.6509 231.549 92.7841 231.474C92.9174 231.4 93.0318 231.296 93.1187 231.171C93.2055 231.045 93.2625 230.901 93.2853 230.751C93.3081 230.6 93.296 230.445 93.25 230.3L81.55 193C81.5099 192.829 81.5069 192.651 81.5415 192.478C81.576 192.306 81.6471 192.143 81.75 192L108.05 164.3C108.191 164.178 108.292 164.016 108.338 163.836C108.384 163.655 108.374 163.465 108.309 163.29C108.243 163.116 108.126 162.966 107.972 162.86C107.819 162.754 107.636 162.699 107.45 162.7Z" fill="black"/>
<path d="M73.75 147.2L56.45 147.3C56.2465 147.311 56.0513 147.384 55.8905 147.509C55.7296 147.634 55.6108 147.805 55.55 148L53.35 154.3C53.304 154.445 53.2919 154.6 53.3147 154.751C53.3374 154.901 53.3944 155.045 53.4813 155.171C53.5682 155.296 53.6826 155.4 53.8158 155.474C53.9491 155.549 54.0976 155.592 54.25 155.6H61.55C61.7024 155.608 61.8509 155.651 61.9841 155.725C62.1174 155.8 62.2318 155.904 62.3187 156.029C62.4056 156.155 62.4626 156.298 62.4853 156.449C62.5081 156.6 62.496 156.754 62.45 156.9L41.75 215.4C41.6917 215.593 41.5727 215.763 41.4106 215.883C41.2485 216.004 41.0519 216.069 40.85 216.069C40.648 216.069 40.4515 216.004 40.2894 215.883C40.1273 215.763 40.0083 215.593 39.95 215.4L25.15 173.2C25.104 173.054 25.0919 172.9 25.1147 172.749C25.1374 172.598 25.1944 172.455 25.2813 172.329C25.3682 172.204 25.4826 172.1 25.6158 172.025C25.7491 171.951 25.8976 171.908 26.05 171.9H33.55C33.7535 171.911 33.9487 171.984 34.1095 172.109C34.2704 172.234 34.3892 172.405 34.45 172.6L39.85 187.8C39.9083 187.993 40.0273 188.163 40.1894 188.283C40.3515 188.404 40.548 188.469 40.75 188.469C40.9519 188.469 41.1485 188.404 41.3106 188.283C41.4727 188.163 41.5917 187.993 41.65 187.8L49.95 164.1C49.996 163.954 50.0081 163.8 49.9853 163.649C49.9626 163.498 49.9056 163.355 49.8187 163.229C49.7318 163.104 49.6174 163 49.4841 162.925C49.3509 162.851 49.2024 162.808 49.05 162.8H13.45C13.2976 162.808 13.1491 162.851 13.0158 162.925C12.8826 163 12.7682 163.104 12.6813 163.229C12.5944 163.355 12.5374 163.498 12.5147 163.649C12.4919 163.8 12.504 163.954 12.55 164.1L39.75 242.5C39.8083 242.693 39.9273 242.863 40.0894 242.983C40.2515 243.104 40.448 243.169 40.65 243.169C40.8519 243.169 41.0485 243.104 41.2106 242.983C41.3727 242.863 41.4917 242.693 41.55 242.5L74.55 148.6C74.6138 148.457 74.643 148.3 74.6351 148.143C74.6272 147.986 74.5825 147.834 74.5046 147.697C74.4267 147.561 74.3178 147.445 74.1867 147.359C74.0556 147.272 73.906 147.218 73.75 147.2V147.2Z" fill="#D8141C"/>
</svg>
